<svg viewBox="0 0 24 28" fill="none" xmlns="http://www.w3.org/2000/svg">
    <path d="M23.0249 22.8711C21.6133 26.6304 17.2323 28.1424 12.0368 27.3324C3.80512 26.0322 0.380465 21.3259 0.0254706 16.6154C-0.291936 12.4699 2.42691 9.94018 4.29794 8.53618C4.47335 8.39495 4.33135 8.9931 4.19353 9.13434C2.74431 10.5757 0.906695 13.4917 1.15728 15.9508C1.5791 20.3414 5.36292 23.7144 9.14256 24.6988C13.1686 25.7539 18.6815 25.8952 20.0597 21.9573C21.5423 17.7079 17.8713 14.1564 15.0062 11.8385C12.041 9.41264 6.35273 7.37725 6.35273 3.58063C6.34855 1.22954 8.25717 0 9.95279 0C13.131 0 15.0772 2.10601 15.0772 4.39063C15.0772 8.6068 10.3454 11.0326 7.83535 14.4388C7.65995 14.6839 7.51795 13.8074 7.65995 13.525C9.28457 10.5757 12.5338 9.66188 12.8512 5.12586C12.9932 3.05309 10.6962 1.6117 9.17598 1.68231C7.72676 1.75293 7.23395 2.66678 7.55135 4.03755C7.83535 5.23386 9.28039 6.42602 10.5166 7.23602C11.9992 8.22049 14.9687 9.73249 17.6165 11.7347C21.5381 14.6839 24.5744 18.6924 23.0208 22.8711" fill="#EDE9E4"/>
</svg>
