<svg xmlns="http://www.w3.org/2000/svg" width="434" height="85" fill="none"><path fill="#000" d="M22.68 73.08c-9.63 0-16.74-.36-21.69-.99-.9-.09-.99-.27-.99-.63 0-.63 1.62-1.44 2.97-2.34l1.26-.9c.09-.09.18-.09.18-.18 1.89-1.44 3.24-3.24 5.49-7.2 7.92-13.86 14.49-29.61 22.5-43.47a26 26 0 0 1 8.91-9.45l3.87-2.52.63.9c-3.42 2.34-4.68 4.86-6.75 8.37-7.92 13.59-14.4 29.16-22.14 42.75-2.25 3.96-3.87 5.94-6.66 7.92l-3.24 2.25h.09c2.79.45 13.14 1.35 21.33 1.35 24.75 0 40.68-14.49 40.59-34.56-.09-17.91-12.42-31.14-33.12-31.14-9.81 0-17.19 4.68-20.25 6.84l-.54-.9C22.14 4.14 30.87 0 41.4 0c20.88 0 32.58 14.94 32.58 29.43 0 26.55-26.46 43.74-51.3 43.65m81.75.09c-3.33 0-4.23-2.61-4.23-4.59 0-6.75 5.76-17.64 11.52-26.73-15.84 18.72-27.9 31.32-33.57 31.32-4.77 0-5.85-4.41-5.85-7.02 0-15.03 19.08-39.24 35.91-39.24 3.7 0 9.9.63 14.85 2.25l.72.27c.81.27 1 .81.45 1.53a210 210 0 0 0-11.52 18.27c-5.76 10.62-6.39 15.48-6.39 17.01 0 1.71.9 2.52 2.43 2.52 1.98 0 4.5-1.08 8.91-4.95l.63.9c-5.58 4.77-11.16 8.46-13.86 8.46M78.06 63.9c0 2.97 1.17 5.31 3.6 5.31 3.96 0 16.3-12.15 35.2-35.1l.9-1.35c-3.6-1.35-9.28-2.97-14.14-2.97-13.23 0-25.56 19.98-25.56 34.11m49.55 9.27c-4.68 0-9.18-1.71-8.91-6.39.09-1.89 1.26-4.32 5.67-7.65l.54.45a8 8 0 0 0-1 3.78c0 3.78 2.8 7.47 8.92 7.47 5.58 0 10.62-3.6 10.62-9.36 0-7.2-8.73-15.39-8.2-22.41.64-7.65 10.54-12.15 18.82-12.15 3.78 0 8.28 1.08 8.28 2.61 0 1.89-2.7 3.78-4.68 3.78-2.7 0-5.4-1.17-11.8-3.96-4.4 1.53-6.3 3.6-6.56 6.03-.72 7.56 8.64 14.85 8.28 23.22-.45 8.46-9.63 14.58-19.98 14.58m50.32-2.07V22.14H159.2c-.9 0-1.44-.63-1.44-1.44v-7.83c0-.99.54-1.53 1.44-1.53h50.4c.9 0 1.53.54 1.53 1.53v7.83c0 .81-.63 1.44-1.53 1.44h-18.72V71.1c0 .81-.63 1.44-1.53 1.44h-9.9c-.9 0-1.53-.63-1.53-1.44m41.05 0V12.78c0-.81.72-1.44 1.53-1.44h41.94c.9 0 1.44.54 1.44 1.53v7.83c0 .81-.54 1.44-1.44 1.44h-30.51v12.87h21.5c.9 0 1.45.54 1.45 1.53v7.74c0 .9-.54 1.53-1.44 1.53h-21.51v15.93h30.5c.9 0 1.45.54 1.45 1.44v7.83c0 .9-.54 1.53-1.44 1.53H220.5c-.81 0-1.53-.63-1.53-1.44m62.41-.63c-.45 1.35-1.44 2.07-3.06 2.07h-8.28c-1.89 0-2.6-.63-1.89-2.52l22.6-57.24a2.3 2.3 0 0 1 2.15-1.44h11.61c1.08 0 1.8.45 2.25 1.44l22.6 57.24c.71 1.8-.1 2.52-1.9 2.52h-9c-1.62 0-2.52-.45-3.06-1.98l-5.13-14.13h-23.76zm8.82-24.3h16.3l-8.1-22.41zm79.82 26.37c-1.08 0-1.7-.45-2.16-1.35l-18.09-36.63V71.1c0 .81-.63 1.44-1.53 1.44h-9.27c-.8 0-1.53-.63-1.53-1.44V12.78c0-.81.72-1.44 1.53-1.44h11.16c1.17 0 1.98.36 2.34 1.26l20.61 43.02 20.52-43.02c.45-.99 1.26-1.26 2.34-1.26h9.72c.9 0 1.53.63 1.53 1.44V71.1c0 .81-.63 1.44-1.53 1.44h-9.27c-.9 0-1.53-.63-1.53-1.44V34.56l-18 36.63c-.45.99-1.17 1.35-2.25 1.35zm46.52 9.09 3.87-20.07c.27-1.53 1.44-2.07 2.97-2.07h8.37c1.71 0 2.16.81 1.53 2.61l-7.65 19.98a2.8 2.8 0 0 1-2.88 2.07H418c-1.53 0-1.7-.9-1.44-2.52"/></svg>