<svg viewBox="0 0 613 214" fill="none" xmlns="http://www.w3.org/2000/svg">
    <path d="M22.68 73.08C13.05 73.08 5.94 72.72 0.99 72.09C0.0899997 72 -4.84288e-07 71.82 -4.84288e-07 71.46C-4.84288e-07 70.83 1.62 70.02 2.97 69.12L4.23 68.22C4.32 68.13 4.41 68.13 4.41 68.04C6.3 66.6 7.65 64.8 9.9 60.84C17.82 46.98 24.39 31.23 32.4 17.37C34.74 13.23 37.44 10.44 41.31 7.92L45.18 5.4L45.81 6.3C42.39 8.64001 41.13 11.16 39.06 14.67C31.14 28.26 24.66 43.83 16.92 57.42C14.67 61.38 13.05 63.36 10.26 65.34L7.02 67.59H7.11C9.9 68.04 20.25 68.94 28.44 68.94C53.19 68.94 69.12 54.45 69.03 34.38C68.94 16.47 56.61 3.24 35.91 3.24C26.1 3.24 18.72 7.92 15.66 10.08L15.12 9.18C22.14 4.14 30.87 3.69549e-06 41.4 3.69549e-06C62.28 3.69549e-06 73.98 14.94 73.98 29.43C73.98 55.98 47.52 73.17 22.68 73.08ZM84.0916 73.17C77.4316 73.17 73.8316 68.94 73.8316 62.82C73.8316 46.62 93.9916 26.73 107.762 26.73C112.352 26.73 114.872 28.53 114.872 31.59C114.872 36.99 107.762 44.19 79.9516 61.56C80.2216 65.7 82.3816 69.3 88.2316 69.3C91.0216 69.3 96.3316 68.31 103.622 61.83L104.252 62.55C95.8816 70.56 88.3216 73.17 84.0916 73.17ZM79.9516 60.48C98.6716 48.78 108.662 41.49 108.662 34.11C108.662 30.87 106.052 29.79 103.532 29.79C89.9416 29.79 80.0416 48.6 79.9516 60.48ZM117.171 73.17C113.841 73.17 112.761 70.56 112.761 68.58C112.761 60.21 130.491 39.15 130.491 33.66C130.491 32.13 129.591 31.14 128.061 31.14C126.081 31.14 123.381 32.4 118.971 36.27L118.341 35.37C123.921 30.6 129.501 26.91 132.381 26.91C135.531 26.91 136.611 29.52 136.611 31.5C136.611 39.24 119.061 58.95 119.061 66.24C119.061 67.95 119.961 68.76 121.491 68.76C123.471 68.76 125.991 67.68 130.401 63.81L131.031 64.71C125.451 69.48 119.871 73.17 117.171 73.17ZM152.631 5.04C153.891 3.87001 154.251 3.60001 154.521 3.60001C154.791 3.60001 154.971 3.96001 154.971 4.5C154.971 5.49 154.701 5.85 153.891 6.48001L135.801 21.06L135.261 20.34L152.631 5.04ZM137.529 72.54C136.899 72.54 136.629 72.09 136.989 71.46C142.299 62.1 155.079 39.33 155.079 33.66C155.079 32.13 154.179 31.14 152.649 31.14C150.669 31.14 147.969 32.4 143.559 36.27L142.929 35.37C148.509 30.6 154.089 26.91 156.969 26.91C160.119 26.91 161.199 29.52 161.199 31.59C161.199 34.92 155.799 46.08 150.759 55.98C155.169 50.22 160.119 44.73 165.069 40.05C173.169 32.22 180.909 26.91 185.139 26.91C188.469 26.91 189.369 29.52 189.369 31.41C189.369 39.24 172.899 59.58 172.899 66.87C172.899 68.4 173.889 69.21 175.419 69.21C177.399 69.21 180.099 67.68 184.509 63.81L185.139 64.71C179.559 69.66 173.979 73.17 171.279 73.17C167.949 73.17 166.869 70.56 166.869 68.58C166.869 60.21 183.519 39.96 183.519 33.3C183.519 31.95 182.799 30.78 180.909 30.78C177.309 30.78 172.089 34.83 165.699 40.86C159.399 46.8 152.469 54.81 147.159 62.64C144.729 67.14 142.749 70.65 141.939 71.91C141.669 72.36 141.309 72.54 140.859 72.54H137.529ZM212.382 71.1V22.14H193.662C192.762 22.14 192.222 21.51 192.222 20.7V12.87C192.222 11.88 192.762 11.34 193.662 11.34H244.062C244.962 11.34 245.592 11.88 245.592 12.87V20.7C245.592 21.51 244.962 22.14 244.062 22.14H225.342V71.1C225.342 71.91 224.712 72.54 223.812 72.54H213.912C213.012 72.54 212.382 71.91 212.382 71.1ZM253.429 71.1V12.78C253.429 11.97 254.149 11.34 254.959 11.34H276.379C290.509 11.34 300.049 18.81 300.049 30.87C300.049 39.6 294.739 45.36 286.279 47.7L303.379 70.02C304.729 71.82 303.379 72.54 301.579 72.54H291.229C289.609 72.54 289.159 72.09 288.079 70.56L273.139 50.31H266.389V71.1C266.389 71.91 265.849 72.54 264.859 72.54H254.959C254.149 72.54 253.429 71.91 253.429 71.1ZM276.289 22.14H266.389V39.51H276.199C282.319 39.51 286.369 36.27 286.369 30.87C286.369 25.2 282.319 22.14 276.289 22.14ZM320.242 70.47C319.792 71.82 318.802 72.54 317.182 72.54H308.902C307.012 72.54 306.292 71.91 307.012 70.02L329.602 12.78C329.962 11.97 330.682 11.34 331.762 11.34H343.372C344.452 11.34 345.172 11.79 345.622 12.78L368.212 70.02C368.932 71.82 368.122 72.54 366.322 72.54H357.322C355.702 72.54 354.802 72.09 354.262 70.56L349.132 56.43H325.372L320.242 70.47ZM329.062 46.17H345.352L337.252 23.76L329.062 46.17ZM372.054 48.6V12.78C372.054 11.97 372.684 11.34 373.584 11.34H383.484C384.474 11.34 385.014 11.97 385.014 12.78V48.78C385.014 57.6 390.144 62.28 397.794 62.28C405.444 62.28 410.484 57.6 410.484 48.78V12.78C410.484 11.97 411.114 11.34 412.014 11.34H421.914C422.904 11.34 423.444 11.97 423.444 12.78V48.6C423.444 63.9 413.364 73.44 397.794 73.44C382.224 73.44 372.054 63.9 372.054 48.6ZM468.03 72.54C466.95 72.54 466.32 72.09 465.87 71.19L447.78 34.56V71.1C447.78 71.91 447.15 72.54 446.25 72.54H436.98C436.17 72.54 435.45 71.91 435.45 71.1V12.78C435.45 11.97 436.17 11.34 436.98 11.34H448.14C449.31 11.34 450.12 11.7 450.48 12.6L471.09 55.62L491.61 12.6C492.06 11.61 492.87 11.34 493.95 11.34H503.67C504.57 11.34 505.2 11.97 505.2 12.78V71.1C505.2 71.91 504.57 72.54 503.67 72.54H494.4C493.5 72.54 492.87 71.91 492.87 71.1V34.56L474.87 71.19C474.42 72.18 473.7 72.54 472.62 72.54H468.03ZM22.68 143.08C13.05 143.08 5.94 142.72 0.99 142.09C0.0899997 142 -4.84288e-07 141.82 -4.84288e-07 141.46C-4.84288e-07 140.83 1.62 140.02 2.97 139.12L4.23 138.22C4.32 138.13 4.41 138.13 4.41 138.04C6.3 136.6 7.65 134.8 9.9 130.84C17.82 116.98 24.39 101.23 32.4 87.37C34.74 83.23 37.44 80.44 41.31 77.92L45.18 75.4L45.81 76.3C42.39 78.64 41.13 81.16 39.06 84.67C31.14 98.26 24.66 113.83 16.92 127.42C14.67 131.38 13.05 133.36 10.26 135.34L7.02 137.59H7.11C9.9 138.04 20.25 138.94 28.44 138.94C53.19 138.94 69.12 124.45 69.03 104.38C68.94 86.47 56.61 73.24 35.91 73.24C26.1 73.24 18.72 77.92 15.66 80.08L15.12 79.18C22.14 74.14 30.87 70 41.4 70C62.28 70 73.98 84.94 73.98 99.43C73.98 125.98 47.52 143.17 22.68 143.08ZM84.0916 143.17C77.4316 143.17 73.8316 138.94 73.8316 132.82C73.8316 116.62 93.9916 96.73 107.762 96.73C112.352 96.73 114.872 98.53 114.872 101.59C114.872 106.99 107.762 114.19 79.9516 131.56C80.2216 135.7 82.3816 139.3 88.2316 139.3C91.0216 139.3 96.3316 138.31 103.622 131.83L104.252 132.55C95.8816 140.56 88.3216 143.17 84.0916 143.17ZM79.9516 130.48C98.6716 118.78 108.662 111.49 108.662 104.11C108.662 100.87 106.052 99.79 103.532 99.79C89.9416 99.79 80.0416 118.6 79.9516 130.48ZM117.171 143.17C113.841 143.17 112.761 140.56 112.761 138.58C112.761 130.21 130.491 109.15 130.491 103.66C130.491 102.13 129.591 101.14 128.061 101.14C126.081 101.14 123.381 102.4 118.971 106.27L118.341 105.37C123.921 100.6 129.501 96.91 132.381 96.91C135.531 96.91 136.611 99.52 136.611 101.5C136.611 109.24 119.061 128.95 119.061 136.24C119.061 137.95 119.961 138.76 121.491 138.76C123.471 138.76 125.991 137.68 130.401 133.81L131.031 134.71C125.451 139.48 119.871 143.17 117.171 143.17ZM152.631 75.04C153.891 73.87 154.251 73.6 154.521 73.6C154.791 73.6 154.971 73.96 154.971 74.5C154.971 75.49 154.701 75.85 153.891 76.48L135.801 91.06L135.261 90.34L152.631 75.04ZM137.529 142.54C136.899 142.54 136.629 142.09 136.989 141.46C142.299 132.1 155.079 109.33 155.079 103.66C155.079 102.13 154.179 101.14 152.649 101.14C150.669 101.14 147.969 102.4 143.559 106.27L142.929 105.37C148.509 100.6 154.089 96.91 156.969 96.91C160.119 96.91 161.199 99.52 161.199 101.59C161.199 104.92 155.799 116.08 150.759 125.98C155.169 120.22 160.119 114.73 165.069 110.05C173.169 102.22 180.909 96.91 185.139 96.91C188.469 96.91 189.369 99.52 189.369 101.41C189.369 109.24 172.899 129.58 172.899 136.87C172.899 138.4 173.889 139.21 175.419 139.21C177.399 139.21 180.099 137.68 184.509 133.81L185.139 134.71C179.559 139.66 173.979 143.17 171.279 143.17C167.949 143.17 166.869 140.56 166.869 138.58C166.869 130.21 183.519 109.96 183.519 103.3C183.519 101.95 182.799 100.78 180.909 100.78C177.309 100.78 172.089 104.83 165.699 110.86C159.399 116.8 152.469 124.81 147.159 132.64C144.729 137.14 142.749 140.65 141.939 141.91C141.669 142.36 141.309 142.54 140.859 142.54H137.529ZM226.692 141.1C226.422 141.91 225.702 142.54 224.532 142.54H212.112C211.032 142.54 210.132 142.09 209.862 141.1L192.582 83.86C192.042 82.06 192.582 81.34 194.382 81.34H203.742C205.362 81.34 206.442 81.79 206.892 83.32L219.222 129.22L231.462 83.32C231.912 81.88 232.452 81.34 234.612 81.34H243.162C244.692 81.34 245.772 81.79 246.132 83.32L258.372 129.22L270.792 83.41C271.152 82.06 272.232 81.34 273.762 81.34H282.402C284.202 81.34 284.742 81.97 284.292 83.86L266.922 141.1C266.652 141.91 265.932 142.54 264.762 142.54H251.352C250.272 142.54 249.372 142.09 249.102 141.1L237.942 100.15L226.692 141.1ZM292.54 141.1V82.78C292.54 81.97 293.26 81.34 294.07 81.34H336.01C336.91 81.34 337.45 81.88 337.45 82.87V90.7C337.45 91.51 336.91 92.14 336.01 92.14H305.5V105.01H327.01C327.91 105.01 328.45 105.55 328.45 106.54V114.28C328.45 115.18 327.91 115.81 327.01 115.81H305.5V131.74H336.01C336.91 131.74 337.45 132.28 337.45 133.18V141.01C337.45 141.91 336.91 142.54 336.01 142.54H294.07C293.26 142.54 292.54 141.91 292.54 141.1ZM371.839 132.28C376.609 132.28 380.299 130.48 383.449 127.33V115.09C383.449 114.19 383.989 113.56 384.889 113.56H394.159C395.059 113.56 395.599 114.19 395.599 115.09V141.1C395.599 141.91 395.059 142.54 394.159 142.54H384.889C383.989 142.54 383.449 141.91 383.449 141.1V138.49C379.579 141.91 375.079 143.44 369.499 143.44C353.389 143.44 341.509 132.01 341.509 111.94C341.509 92.59 353.659 80.44 371.839 80.44C380.749 80.44 387.139 82.24 393.529 85.84C394.699 86.56 394.699 87.28 394.339 88.09L390.559 95.47C390.019 96.55 389.389 96.91 388.399 96.37C381.919 92.86 377.599 91.6 371.839 91.6C361.759 91.6 355.189 99.7 355.189 111.94C355.189 124.18 361.759 132.28 371.839 132.28ZM402.491 151.63L406.361 131.56C406.631 130.03 407.801 129.49 409.331 129.49H417.701C419.411 129.49 419.861 130.3 419.231 132.1L411.581 152.08C411.131 153.43 410.141 154.15 408.701 154.15H403.931C402.401 154.15 402.221 153.25 402.491 151.63ZM22.68 213.08C13.05 213.08 5.94 212.72 0.99 212.09C0.0899997 212 -4.84288e-07 211.82 -4.84288e-07 211.46C-4.84288e-07 210.83 1.62 210.02 2.97 209.12L4.23 208.22C4.32 208.13 4.41 208.13 4.41 208.04C6.3 206.6 7.65 204.8 9.9 200.84C17.82 186.98 24.39 171.23 32.4 157.37C34.74 153.23 37.44 150.44 41.31 147.92L45.18 145.4L45.81 146.3C42.39 148.64 41.13 151.16 39.06 154.67C31.14 168.26 24.66 183.83 16.92 197.42C14.67 201.38 13.05 203.36 10.26 205.34L7.02 207.59H7.11C9.9 208.04 20.25 208.94 28.44 208.94C53.19 208.94 69.12 194.45 69.03 174.38C68.94 156.47 56.61 143.24 35.91 143.24C26.1 143.24 18.72 147.92 15.66 150.08L15.12 149.18C22.14 144.14 30.87 140 41.4 140C62.28 140 73.98 154.94 73.98 169.43C73.98 195.98 47.52 213.17 22.68 213.08ZM84.0916 213.17C77.4316 213.17 73.8316 208.94 73.8316 202.82C73.8316 186.62 93.9916 166.73 107.762 166.73C112.352 166.73 114.872 168.53 114.872 171.59C114.872 176.99 107.762 184.19 79.9516 201.56C80.2216 205.7 82.3816 209.3 88.2316 209.3C91.0216 209.3 96.3316 208.31 103.622 201.83L104.252 202.55C95.8816 210.56 88.3216 213.17 84.0916 213.17ZM79.9516 200.48C98.6716 188.78 108.662 181.49 108.662 174.11C108.662 170.87 106.052 169.79 103.532 169.79C89.9416 169.79 80.0416 188.6 79.9516 200.48ZM117.171 213.17C113.841 213.17 112.761 210.56 112.761 208.58C112.761 200.21 130.491 179.15 130.491 173.66C130.491 172.13 129.591 171.14 128.061 171.14C126.081 171.14 123.381 172.4 118.971 176.27L118.341 175.37C123.921 170.6 129.501 166.91 132.381 166.91C135.531 166.91 136.611 169.52 136.611 171.5C136.611 179.24 119.061 198.95 119.061 206.24C119.061 207.95 119.961 208.76 121.491 208.76C123.471 208.76 125.991 207.68 130.401 203.81L131.031 204.71C125.451 209.48 119.871 213.17 117.171 213.17ZM152.631 145.04C153.891 143.87 154.251 143.6 154.521 143.6C154.791 143.6 154.971 143.96 154.971 144.5C154.971 145.49 154.701 145.85 153.891 146.48L135.801 161.06L135.261 160.34L152.631 145.04ZM137.529 212.54C136.899 212.54 136.629 212.09 136.989 211.46C142.299 202.1 155.079 179.33 155.079 173.66C155.079 172.13 154.179 171.14 152.649 171.14C150.669 171.14 147.969 172.4 143.559 176.27L142.929 175.37C148.509 170.6 154.089 166.91 156.969 166.91C160.119 166.91 161.199 169.52 161.199 171.59C161.199 174.92 155.799 186.08 150.759 195.98C155.169 190.22 160.119 184.73 165.069 180.05C173.169 172.22 180.909 166.91 185.139 166.91C188.469 166.91 189.369 169.52 189.369 171.41C189.369 179.24 172.899 199.58 172.899 206.87C172.899 208.4 173.889 209.21 175.419 209.21C177.399 209.21 180.099 207.68 184.509 203.81L185.139 204.71C179.559 209.66 173.979 213.17 171.279 213.17C167.949 213.17 166.869 210.56 166.869 208.58C166.869 200.21 183.519 179.96 183.519 173.3C183.519 171.95 182.799 170.78 180.909 170.78C177.309 170.78 172.089 174.83 165.699 180.86C159.399 186.8 152.469 194.81 147.159 202.64C144.729 207.14 142.749 210.65 141.939 211.91C141.669 212.36 141.309 212.54 140.859 212.54H137.529ZM205.632 210.47C205.182 211.82 204.192 212.54 202.572 212.54H194.292C192.402 212.54 191.682 211.91 192.402 210.02L214.992 152.78C215.352 151.97 216.072 151.34 217.152 151.34H228.762C229.842 151.34 230.562 151.79 231.012 152.78L253.602 210.02C254.322 211.82 253.512 212.54 251.712 212.54H242.712C241.092 212.54 240.192 212.09 239.652 210.56L234.522 196.43H210.762L205.632 210.47ZM214.452 186.17H230.742L222.642 163.76L214.452 186.17ZM261.69 211.1V152.78C261.69 151.97 262.41 151.34 263.22 151.34H283.92C299.04 151.34 309.12 159.44 309.12 172.31C309.12 184.55 299.04 193.28 284.01 193.28H274.65V211.1C274.65 211.91 274.11 212.54 273.12 212.54H263.22C262.41 212.54 261.69 211.91 261.69 211.1ZM283.83 162.14H274.65V182.39H283.74C290.76 182.39 295.44 178.07 295.44 172.31C295.44 165.74 290.76 162.14 283.83 162.14ZM318.028 211.1V152.78C318.028 151.97 318.748 151.34 319.558 151.34H340.258C355.378 151.34 365.458 159.44 365.458 172.31C365.458 184.55 355.378 193.28 340.348 193.28H330.988V211.1C330.988 211.91 330.448 212.54 329.458 212.54H319.558C318.748 212.54 318.028 211.91 318.028 211.1ZM340.168 162.14H330.988V182.39H340.078C347.098 182.39 351.778 178.07 351.778 172.31C351.778 165.74 347.098 162.14 340.168 162.14ZM374.366 211.1V152.78C374.366 151.97 375.086 151.34 375.896 151.34H385.796C386.786 151.34 387.326 151.97 387.326 152.78V201.74H415.136C416.036 201.74 416.576 202.28 416.576 203.18V211.01C416.576 211.91 416.036 212.54 415.136 212.54H375.896C375.086 212.54 374.366 211.91 374.366 211.1ZM432.742 210.47C432.292 211.82 431.302 212.54 429.682 212.54H421.402C419.512 212.54 418.792 211.91 419.512 210.02L442.102 152.78C442.462 151.97 443.182 151.34 444.262 151.34H455.872C456.952 151.34 457.672 151.79 458.122 152.78L480.712 210.02C481.432 211.82 480.622 212.54 478.822 212.54H469.822C468.202 212.54 467.302 212.09 466.762 210.56L461.632 196.43H437.872L432.742 210.47ZM441.562 186.17H457.852L449.752 163.76L441.562 186.17ZM484.554 188.6V152.78C484.554 151.97 485.184 151.34 486.084 151.34H495.984C496.974 151.34 497.514 151.97 497.514 152.78V188.78C497.514 197.6 502.644 202.28 510.294 202.28C517.944 202.28 522.984 197.6 522.984 188.78V152.78C522.984 151.97 523.614 151.34 524.514 151.34H534.414C535.404 151.34 535.944 151.97 535.944 152.78V188.6C535.944 203.9 525.864 213.44 510.294 213.44C494.724 213.44 484.554 203.9 484.554 188.6ZM570 202.28C575.58 202.28 578.73 199.85 578.73 196.34C578.73 192.38 576.21 190.58 564.6 187.16C550.2 183.02 545.25 177.35 545.25 168.35C545.25 158.72 552.27 150.44 568.02 150.44C575.85 150.44 584.31 153.05 590.25 156.38C591.42 157.1 591.42 157.82 591.06 158.63L587.55 166.28C586.92 167.54 586.38 167.99 584.76 167.18C580.35 164.66 573.69 161.6 567.48 161.6C561 161.6 558.84 164.12 558.84 167.09C558.84 170.96 561.9 172.31 573.15 175.73C585.48 179.51 592.32 184.1 592.32 194.81C592.32 206.33 583.23 213.44 569.73 213.44C559.38 213.44 551.91 211.1 545.34 207.59C543.99 206.87 543.81 206.15 544.44 204.98L548.04 197.33C548.58 196.25 549.21 195.98 550.29 196.61C557.04 199.94 562.71 202.28 570 202.28ZM604.896 213.44C600.576 213.44 597.336 210.02 597.336 205.61C597.336 201.38 600.576 197.87 604.896 197.87C609.306 197.87 612.816 201.38 612.816 205.61C612.816 210.02 609.306 213.44 604.896 213.44Z" fill="#EDE9E4"/>
</svg>
