<svg xmlns="http://www.w3.org/2000/svg" width="613" height="214" fill="none"><path fill="#ede9e4" d="M22.68 73.08c-9.63 0-16.74-.36-21.69-.99-.9-.09-.99-.27-.99-.63 0-.63 1.62-1.44 2.97-2.34l1.26-.9c.09-.09.18-.09.18-.18 1.89-1.44 3.24-3.24 5.49-7.2 7.92-13.86 14.49-29.61 22.5-43.47a26 26 0 0 1 8.91-9.45l3.87-2.52.63.9c-3.42 2.34-4.68 4.86-6.75 8.37-7.92 13.59-14.4 29.16-22.14 42.75-2.25 3.96-3.87 5.94-6.66 7.92l-3.24 2.25h.09c2.79.45 13.14 1.35 21.33 1.35 24.75 0 40.68-14.49 40.59-34.56-.09-17.91-12.42-31.14-33.12-31.14-9.81 0-17.19 4.68-20.25 6.84l-.54-.9C22.14 4.14 30.87 0 41.4 0c20.88 0 32.58 14.94 32.58 29.43 0 26.55-26.46 43.74-51.3 43.65m61.41.09c-6.66 0-10.26-4.23-10.26-10.35 0-16.2 20.16-36.09 33.93-36.09 4.6 0 7.11 1.8 7.11 4.86 0 5.4-7.1 12.6-34.92 29.97.27 4.14 2.43 7.74 8.28 7.74 2.8 0 8.1-.99 15.4-7.47l.62.72c-8.37 8.01-15.93 10.62-20.16 10.62m-4.14-12.69c18.72-11.7 28.71-18.99 28.71-26.37 0-3.24-2.6-4.32-5.13-4.32-13.59 0-23.49 18.81-23.58 30.69m37.22 12.69c-3.33 0-4.4-2.61-4.4-4.59 0-8.37 17.72-29.43 17.72-34.92 0-1.53-.9-2.52-2.43-2.52-1.98 0-4.68 1.26-9.09 5.13l-.63-.9c5.58-4.77 11.16-8.46 14.04-8.46 3.15 0 4.23 2.61 4.23 4.59 0 7.74-17.55 27.45-17.55 34.74 0 1.71.9 2.52 2.43 2.52 1.98 0 4.5-1.08 8.91-4.95l.63.9c-5.58 4.77-11.16 8.46-13.86 8.46m35.46-68.13c1.26-1.17 1.62-1.44 1.9-1.44.26 0 .44.36.44.9 0 .99-.27 1.35-1.08 1.98L135.8 21.06l-.54-.72zm-15.1 67.5c-.63 0-.9-.45-.54-1.08 5.3-9.36 18.09-32.13 18.09-37.8 0-1.53-.9-2.52-2.43-2.52-1.98 0-4.68 1.26-9.1 5.13l-.62-.9c5.58-4.77 11.16-8.46 14.04-8.46 3.15 0 4.23 2.61 4.23 4.68 0 3.33-5.4 14.49-10.44 24.39a136 136 0 0 1 14.3-15.93c8.1-7.83 15.85-13.14 20.08-13.14 3.33 0 4.23 2.61 4.23 4.5 0 7.83-16.47 28.17-16.47 35.46 0 1.53.99 2.34 2.52 2.34 1.98 0 4.68-1.53 9.09-5.4l.63.9c-5.58 4.95-11.16 8.46-13.86 8.46-3.33 0-4.41-2.61-4.41-4.59 0-8.37 16.65-28.62 16.65-35.28 0-1.35-.72-2.52-2.61-2.52-3.6 0-8.82 4.05-15.21 10.08a138 138 0 0 0-18.54 21.78c-2.43 4.5-4.41 8.01-5.22 9.27-.27.45-.63.63-1.08.63zm74.85-1.44V22.14h-18.72c-.9 0-1.44-.63-1.44-1.44v-7.83c0-.99.54-1.53 1.44-1.53h50.4c.9 0 1.53.54 1.53 1.53v7.83c0 .81-.63 1.44-1.53 1.44h-18.72V71.1c0 .81-.63 1.44-1.53 1.44h-9.9c-.9 0-1.53-.63-1.53-1.44m41.05 0V12.78c0-.81.72-1.44 1.53-1.44h21.42c14.13 0 23.67 7.47 23.67 19.53 0 8.73-5.31 14.49-13.77 16.83l17.1 22.32c1.35 1.8 0 2.52-1.8 2.52h-10.35c-1.62 0-2.07-.45-3.15-1.98l-14.94-20.25h-6.75V71.1c0 .81-.54 1.44-1.53 1.44h-9.9c-.81 0-1.53-.63-1.53-1.44m22.86-48.96h-9.9v17.37h9.8c6.13 0 10.18-3.24 10.18-8.64 0-5.67-4.05-8.73-10.08-8.73m43.95 48.33c-.45 1.35-1.44 2.07-3.06 2.07h-8.28c-1.89 0-2.6-.63-1.89-2.52l22.6-57.24a2.3 2.3 0 0 1 2.15-1.44h11.61c1.08 0 1.8.45 2.25 1.44l22.6 57.24c.71 1.8-.1 2.52-1.9 2.52h-9c-1.62 0-2.52-.45-3.06-1.98l-5.13-14.13h-23.76zm8.82-24.3h16.3l-8.1-22.41zm43 2.43V12.78c0-.81.62-1.44 1.52-1.44h9.9c1 0 1.53.63 1.53 1.44v36c0 8.82 5.13 13.5 12.78 13.5s12.7-4.68 12.7-13.5v-36c0-.81.62-1.44 1.52-1.44h9.9c1 0 1.53.63 1.53 1.44V48.6c0 15.3-10.08 24.84-25.65 24.84s-25.74-9.54-25.74-24.84m95.97 23.94c-1.08 0-1.71-.45-2.16-1.35l-18.09-36.63V71.1c0 .81-.63 1.44-1.53 1.44h-9.27c-.81 0-1.53-.63-1.53-1.44V12.78c0-.81.72-1.44 1.53-1.44h11.16c1.17 0 1.98.36 2.34 1.26l20.61 43.02 20.52-43.02c.45-.99 1.26-1.26 2.34-1.26h9.72c.9 0 1.53.63 1.53 1.44V71.1c0 .81-.63 1.44-1.53 1.44h-9.27c-.9 0-1.53-.63-1.53-1.44V34.56l-18 36.63c-.45.99-1.17 1.35-2.25 1.35zM22.68 143.08c-9.63 0-16.74-.36-21.69-.99-.9-.09-.99-.27-.99-.63 0-.63 1.62-1.44 2.97-2.34l1.26-.9c.09-.09.18-.09.18-.18 1.89-1.44 3.24-3.24 5.49-7.2 7.92-13.86 14.49-29.61 22.5-43.47a26 26 0 0 1 8.91-9.45l3.87-2.52.63.9c-3.42 2.34-4.68 4.86-6.75 8.37-7.92 13.59-14.4 29.16-22.14 42.75-2.25 3.96-3.87 5.94-6.66 7.92l-3.24 2.25h.09c2.79.45 13.14 1.35 21.33 1.35 24.75 0 40.68-14.49 40.59-34.56-.09-17.91-12.42-31.14-33.12-31.14-9.81 0-17.19 4.68-20.25 6.84l-.54-.9C22.14 74.14 30.87 70 41.4 70c20.88 0 32.58 14.94 32.58 29.43 0 26.55-26.46 43.74-51.3 43.65m61.41.09c-6.66 0-10.26-4.23-10.26-10.35 0-16.2 20.16-36.09 33.93-36.09 4.6 0 7.11 1.8 7.11 4.86 0 5.4-7.1 12.6-34.92 29.97.27 4.14 2.43 7.74 8.28 7.74 2.8 0 8.1-.99 15.4-7.47l.62.72c-8.37 8.01-15.93 10.62-20.16 10.62m-4.14-12.69c18.72-11.7 28.71-18.99 28.71-26.37 0-3.24-2.6-4.32-5.13-4.32-13.59 0-23.49 18.81-23.58 30.69m37.22 12.69c-3.33 0-4.4-2.61-4.4-4.59 0-8.37 17.72-29.43 17.72-34.92 0-1.53-.9-2.52-2.43-2.52-1.98 0-4.68 1.26-9.09 5.13l-.63-.9c5.58-4.77 11.16-8.46 14.04-8.46 3.15 0 4.23 2.61 4.23 4.59 0 7.74-17.55 27.45-17.55 34.74 0 1.71.9 2.52 2.43 2.52 1.98 0 4.5-1.08 8.91-4.95l.63.9c-5.58 4.77-11.16 8.46-13.86 8.46m35.46-68.13c1.26-1.17 1.62-1.44 1.9-1.44.26 0 .44.36.44.9 0 .99-.27 1.35-1.08 1.98L135.8 91.06l-.54-.72zm-15.1 67.5c-.63 0-.9-.45-.54-1.08 5.3-9.36 18.09-32.13 18.09-37.8 0-1.53-.9-2.52-2.43-2.52-1.98 0-4.68 1.26-9.1 5.13l-.62-.9c5.58-4.77 11.16-8.46 14.04-8.46 3.15 0 4.23 2.61 4.23 4.68 0 3.33-5.4 14.49-10.44 24.39a136 136 0 0 1 14.3-15.93c8.1-7.83 15.85-13.14 20.08-13.14 3.33 0 4.23 2.61 4.23 4.5 0 7.83-16.47 28.17-16.47 35.46 0 1.53.99 2.34 2.52 2.34 1.98 0 4.68-1.53 9.09-5.4l.63.9c-5.58 4.95-11.16 8.46-13.86 8.46-3.33 0-4.41-2.61-4.41-4.59 0-8.37 16.65-28.62 16.65-35.28 0-1.35-.72-2.52-2.61-2.52-3.6 0-8.82 4.05-15.21 10.08a138 138 0 0 0-18.54 21.78c-2.43 4.5-4.41 8.01-5.22 9.27-.27.45-.63.63-1.08.63zm89.16-1.44c-.27.81-.99 1.44-2.16 1.44h-12.42c-1.08 0-1.98-.45-2.25-1.44l-17.28-57.24c-.54-1.8 0-2.52 1.8-2.52h9.36c1.62 0 2.7.45 3.15 1.98l12.33 45.9 12.24-45.9c.45-1.44 1-1.98 3.15-1.98h8.55c1.53 0 2.61.45 2.97 1.98l12.24 45.9 12.42-45.81c.36-1.35 1.44-2.07 2.97-2.07h8.64c1.8 0 2.34.63 1.9 2.52l-17.38 57.24c-.27.81-.99 1.44-2.16 1.44h-13.4c-1.09 0-1.99-.45-2.26-1.44l-11.16-40.95zm65.85 0V82.78c0-.81.72-1.44 1.53-1.44h41.94c.9 0 1.44.54 1.44 1.53v7.83c0 .81-.54 1.44-1.44 1.44H305.5v12.87h21.51c.9 0 1.44.54 1.44 1.53v7.74c0 .9-.54 1.53-1.44 1.53H305.5v15.93h30.51c.9 0 1.44.54 1.44 1.44v7.83c0 .9-.54 1.53-1.44 1.53h-41.94c-.81 0-1.53-.63-1.53-1.44m79.3-8.82c4.77 0 8.46-1.8 11.6-4.95v-12.24c0-.9.55-1.53 1.45-1.53h9.27c.9 0 1.44.63 1.44 1.53v26.01c0 .81-.54 1.44-1.44 1.44h-9.27c-.9 0-1.44-.63-1.44-1.44v-2.61c-3.87 3.42-8.37 4.95-13.95 4.95-16.11 0-28-11.43-28-31.5 0-19.35 12.16-31.5 30.34-31.5 8.9 0 15.3 1.8 21.69 5.4 1.17.72 1.17 1.44.8 2.25l-3.77 7.38c-.54 1.08-1.17 1.44-2.16.9-6.48-3.51-10.8-4.77-16.56-4.77-10.08 0-16.65 8.1-16.65 20.34s6.57 20.34 16.65 20.34m30.65 19.35 3.87-20.07c.27-1.53 1.44-2.07 2.97-2.07h8.37c1.71 0 2.16.81 1.53 2.61l-7.65 19.98a2.8 2.8 0 0 1-2.88 2.07h-4.77c-1.53 0-1.7-.9-1.44-2.52M22.68 213.08c-9.63 0-16.74-.36-21.69-.99-.9-.09-.99-.27-.99-.63 0-.63 1.62-1.44 2.97-2.34l1.26-.9c.09-.09.18-.09.18-.18 1.89-1.44 3.24-3.24 5.49-7.2 7.92-13.86 14.49-29.61 22.5-43.47a26 26 0 0 1 8.91-9.45l3.87-2.52.63.9c-3.42 2.34-4.68 4.86-6.75 8.37-7.92 13.59-14.4 29.16-22.14 42.75-2.25 3.96-3.87 5.94-6.66 7.92l-3.24 2.25h.09c2.79.45 13.14 1.35 21.33 1.35 24.75 0 40.68-14.49 40.59-34.56-.09-17.91-12.42-31.14-33.12-31.14-9.81 0-17.19 4.68-20.25 6.84l-.54-.9c7.02-5.04 15.75-9.18 26.28-9.18 20.88 0 32.58 14.94 32.58 29.43 0 26.55-26.46 43.74-51.3 43.65m61.41.09c-6.66 0-10.26-4.23-10.26-10.35 0-16.2 20.16-36.09 33.93-36.09 4.6 0 7.11 1.8 7.11 4.86 0 5.4-7.1 12.6-34.92 29.97.27 4.14 2.43 7.74 8.28 7.74 2.8 0 8.1-.99 15.4-7.47l.62.72c-8.37 8.01-15.93 10.62-20.16 10.62m-4.14-12.69c18.72-11.7 28.71-18.99 28.71-26.37 0-3.24-2.6-4.32-5.13-4.32-13.59 0-23.49 18.81-23.58 30.69m37.22 12.69c-3.33 0-4.4-2.61-4.4-4.59 0-8.37 17.72-29.43 17.72-34.92 0-1.53-.9-2.52-2.43-2.52-1.98 0-4.68 1.26-9.09 5.13l-.63-.9c5.58-4.77 11.16-8.46 14.04-8.46 3.15 0 4.23 2.61 4.23 4.59 0 7.74-17.55 27.45-17.55 34.74 0 1.71.9 2.52 2.43 2.52 1.98 0 4.5-1.08 8.91-4.95l.63.9c-5.58 4.77-11.16 8.46-13.86 8.46m35.46-68.13c1.26-1.17 1.62-1.44 1.9-1.44.26 0 .44.36.44.9 0 .99-.27 1.35-1.08 1.98l-18.09 14.58-.54-.72zm-15.1 67.5c-.63 0-.9-.45-.54-1.08 5.3-9.36 18.09-32.13 18.09-37.8 0-1.53-.9-2.52-2.43-2.52-1.98 0-4.68 1.26-9.1 5.13l-.62-.9c5.58-4.77 11.16-8.46 14.04-8.46 3.15 0 4.23 2.61 4.23 4.68 0 3.33-5.4 14.49-10.44 24.39a136 136 0 0 1 14.3-15.93c8.1-7.83 15.85-13.14 20.08-13.14 3.33 0 4.23 2.61 4.23 4.5 0 7.83-16.47 28.17-16.47 35.46 0 1.53.99 2.34 2.52 2.34 1.98 0 4.68-1.53 9.09-5.4l.63.9c-5.58 4.95-11.16 8.46-13.86 8.46-3.33 0-4.41-2.61-4.41-4.59 0-8.37 16.65-28.62 16.65-35.28 0-1.35-.72-2.52-2.61-2.52-3.6 0-8.82 4.05-15.21 10.08a138 138 0 0 0-18.54 21.78c-2.43 4.5-4.41 8.01-5.22 9.27-.27.45-.63.63-1.08.63zm68.1-2.07c-.45 1.35-1.44 2.07-3.06 2.07h-8.28c-1.89 0-2.6-.63-1.89-2.52l22.6-57.24a2.3 2.3 0 0 1 2.15-1.44h11.61c1.08 0 1.8.45 2.25 1.44l22.6 57.24c.71 1.8-.1 2.52-1.9 2.52h-9c-1.62 0-2.52-.45-3.06-1.98l-5.13-14.13h-23.76zm8.82-24.3h16.3l-8.1-22.41zm47.24 24.93v-58.32c0-.81.72-1.44 1.53-1.44h20.7c15.12 0 25.2 8.1 25.2 20.97 0 12.24-10.08 20.97-25.11 20.97h-9.36v17.82c0 .81-.54 1.44-1.53 1.44h-9.9c-.81 0-1.53-.63-1.53-1.44m22.14-48.96h-9.18v20.25h9.09c7.02 0 11.7-4.32 11.7-10.08 0-6.57-4.68-10.17-11.61-10.17m34.2 48.96v-58.32c0-.81.72-1.44 1.53-1.44h20.7c15.12 0 25.2 8.1 25.2 20.97 0 12.24-10.08 20.97-25.11 20.97h-9.36v17.82c0 .81-.54 1.44-1.53 1.44h-9.9c-.81 0-1.53-.63-1.53-1.44m22.14-48.96h-9.18v20.25h9.09c7.02 0 11.7-4.32 11.7-10.08 0-6.57-4.68-10.17-11.61-10.17m34.2 48.96v-58.32c0-.81.72-1.44 1.53-1.44h9.9c.99 0 1.53.63 1.53 1.44v48.96h27.8c.9 0 1.45.54 1.45 1.44v7.83c0 .9-.54 1.53-1.44 1.53H375.9c-.81 0-1.53-.63-1.53-1.44m58.37-.63c-.45 1.35-1.44 2.07-3.06 2.07h-8.28c-1.89 0-2.6-.63-1.89-2.52l22.6-57.24a2.3 2.3 0 0 1 2.15-1.44h11.61c1.08 0 1.8.45 2.25 1.44l22.6 57.24c.71 1.8-.1 2.52-1.9 2.52h-9c-1.62 0-2.52-.45-3.06-1.98l-5.13-14.13h-23.76zm8.82-24.3h16.3l-8.1-22.41zm43 2.43v-35.82c0-.81.62-1.44 1.52-1.44h9.9c1 0 1.53.63 1.53 1.44v36c0 8.82 5.13 13.5 12.78 13.5s12.7-4.68 12.7-13.5v-36c0-.81.62-1.44 1.52-1.44h9.9c1 0 1.53.63 1.53 1.44v35.82c0 15.3-10.08 24.84-25.65 24.84s-25.74-9.54-25.74-24.84M570 202.28c5.58 0 8.73-2.43 8.73-5.94 0-3.96-2.52-5.76-14.13-9.18-14.4-4.14-19.35-9.81-19.35-18.81 0-9.63 7.02-17.91 22.77-17.91 7.83 0 16.29 2.61 22.23 5.94 1.17.72 1.17 1.44.81 2.25l-3.51 7.65c-.63 1.26-1.17 1.71-2.79.9-4.41-2.52-11.07-5.58-17.28-5.58-6.48 0-8.64 2.52-8.64 5.49 0 3.87 3.06 5.22 14.31 8.64 12.33 3.78 19.17 8.37 19.17 19.08 0 11.52-9.09 18.63-22.59 18.63-10.35 0-17.82-2.34-24.39-5.85-1.35-.72-1.53-1.44-.9-2.61l3.6-7.65c.54-1.08 1.17-1.35 2.25-.72 6.75 3.33 12.42 5.67 19.71 5.67m34.9 11.16c-4.32 0-7.56-3.42-7.56-7.83a7.6 7.6 0 0 1 7.56-7.74 7.84 7.84 0 0 1 7.92 7.74 7.8 7.8 0 0 1-7.92 7.83"/></svg>