<svg xmlns="http://www.w3.org/2000/svg" width="393" height="100" fill="none"><path fill="#000" d="M12.6 88.2C5.31 88.2 0 82.71 0 75.78c0-17.82 26.1-41.76 26.1-53.73 0-2.61-1.44-5.31-5.13-5.31-3.33 0-7.74 2.25-11.07 5.31l-.72-.81c4.32-3.69 9.36-6.39 13.86-6.39 6.12 0 8.01 4.59 8.01 8.01 0 11.16-25.38 36.54-25.38 51.93 0 6.48 3.87 9.99 9.54 9.99 10.62 0 24.75-14.58 38.61-32.49a963 963 0 0 1 21.51-36.27q.4-.54 1.08-.54h3.33c.72 0 .99.45.63 1.08-6.84 10.89-22.95 37.8-29.07 50.58-3.33 7.02-4.86 11.25-4.86 13.32 0 2.25 1.17 3.24 2.7 3.24 1.98 0 4.86-1.08 9.27-4.95l.63.9c-5.58 4.77-11.16 8.46-13.86 8.46-3.51 0-4.77-2.79-4.77-5.22 0-3.33 1.17-7.56 4.41-13.95l5.49-10.26C32.85 80.46 20.88 88.2 12.6 88.2M60.12 8.64c-.81 0-2.07-1.17-2.07-2.79 0-.63.27-1.71.9-2.61C60.03 1.44 61.83 0 62.91 0c.9 0 1.98 1.08 1.98 2.61a5 5 0 0 1-.9 2.79c-.72 1.26-2.61 3.24-3.87 3.24m-14.94 0c-.81 0-2.07-1.17-2.07-2.79 0-.63.27-1.71.9-2.61C45 1.44 46.89 0 47.88 0s2.07 1.08 2.07 2.61a5 5 0 0 1-.9 2.79c-.72 1.26-2.61 3.24-3.87 3.24m31.4 79.47c-8.83 0-13.06-8.91-9-16.65L81.6 44.82c9.72-18.45 23.76-29.97 42.57-29.97 5.31 0 8.28.54 8.28 1.89s-2.34 4.59-5.3 4.59c-2.89 0-7.93-1.35-15.58-3.42-9.36 3.06-15.2 7.92-21.6 20.34L73.33 70.47A179 179 0 0 1 90.61 52.2c6.93-6.3 13.05-10.35 16.3-10.35 3.68 0 5.03 3.51 5.03 6.66 0 18-18.45 39.6-35.37 39.6m3.86-2.43c15.3 0 25.83-21.69 25.83-34.65 0-3.87-1.35-5.22-3.24-5.22-2.25 0-6.57 2.7-11.7 7.2-6.12 5.31-13.23 12.96-19.26 20.7-1.35 8.64 4.23 11.97 8.37 11.97m42.7 2.43c-6.66 0-10.25-4.23-10.25-10.35 0-16.2 20.15-36.09 33.92-36.09 4.6 0 7.12 1.8 7.12 4.86 0 5.4-7.12 12.6-34.93 29.97.28 4.14 2.44 7.74 8.28 7.74 2.8 0 8.1-.99 15.4-7.47l.63.72c-8.37 8.01-15.94 10.62-20.17 10.62M119 75.42c18.72-11.7 28.72-18.99 28.72-26.37 0-3.24-2.62-4.32-5.13-4.32-13.6 0-23.5 18.81-23.59 30.69m32.1 12.06c-.63 0-.9-.45-.54-1.08 5.3-9.36 18.09-32.13 18.09-37.8 0-1.53-.9-2.52-2.44-2.52-1.97 0-4.68 1.26-9.09 5.13l-.62-.9c5.57-4.77 11.16-8.46 14.03-8.46 3.16 0 4.23 2.61 4.23 4.68 0 1.98-1.88 6.84-4.58 12.42 6.11-9.27 13.94-17.1 25.56-17.1 2.33 0 4.22.36 4.22 1.53 0 2.16-3.06 5.22-6.12 5.22-2.78 0-6.12-.36-10.8-1.8-5.84 3.24-12.41 12.51-17.72 22.05a322 322 0 0 1-9.81 18c-.27.45-.63.63-1.08.63zm46.17-23.94V27.72c0-.81.63-1.44 1.53-1.44h9.9c.99 0 1.53.63 1.53 1.44v36c0 8.82 5.13 13.5 12.78 13.5s12.69-4.68 12.69-13.5v-36c0-.81.63-1.44 1.53-1.44h9.9c.99 0 1.53.63 1.53 1.44v35.82c0 15.3-10.08 24.84-25.65 24.84s-25.74-9.54-25.74-24.84M273 86.04c0 .81-.63 1.44-1.53 1.44h-9.27c-.81 0-1.53-.63-1.53-1.44V27.72c0-.81.72-1.44 1.53-1.44h10.44c1.17 0 1.8.36 2.34 1.26l25.1 40.77V27.72c0-.81.55-1.44 1.54-1.44h9.18c.99 0 1.53.63 1.53 1.44v58.32c0 .81-.54 1.44-1.53 1.44h-10c-1.07 0-1.7-.45-2.24-1.35L273 45.54zm74.5-8.82c5.57 0 8.72-2.43 8.72-5.94 0-3.96-2.52-5.76-14.13-9.18-14.4-4.14-19.35-9.81-19.35-18.81 0-9.63 7.02-17.91 22.77-17.91 7.83 0 16.3 2.61 22.23 5.94 1.17.72 1.17 1.44.81 2.25l-3.5 7.65c-.64 1.26-1.18 1.71-2.8.9-4.4-2.52-11.07-5.58-17.28-5.58-6.48 0-8.64 2.52-8.64 5.49 0 3.87 3.06 5.22 14.31 8.64 12.33 3.78 19.17 8.37 19.17 19.08 0 11.52-9.09 18.63-22.59 18.63-10.35 0-17.82-2.34-24.39-5.85-1.35-.72-1.53-1.44-.9-2.61l3.6-7.65c.54-1.08 1.17-1.35 2.25-.72 6.75 3.33 12.42 5.67 19.71 5.67m27.69 19.35 3.87-20.07c.27-1.53 1.44-2.07 2.97-2.07h8.37c1.7 0 2.16.81 1.53 2.61l-7.65 19.98a2.8 2.8 0 0 1-2.88 2.07h-4.77c-1.53 0-1.71-.9-1.44-2.52"/></svg>