<svg xmlns="http://www.w3.org/2000/svg" width="391" height="53" fill="none"><path fill="#000" d="M8.96 52.16A8.7 8.7 0 0 1 0 43.33c0-12.67 18.56-29.7 18.56-38.21 0-1.86-1.02-3.78-3.65-3.78-2.37 0-5.5 1.6-7.87 3.78l-.51-.58C9.6 1.92 13.18 0 16.38 0c4.36 0 5.7 3.26 5.7 5.7 0 7.93-18.05 25.98-18.05 36.92 0 4.61 2.75 7.1 6.79 7.1 7.55 0 17.6-10.36 27.45-23.1A684 684 0 0 1 53.57.83q.29-.38.77-.38h2.36c.52 0 .7.32.45.77C52.3 8.96 40.83 28.1 36.48 37.18c-2.37 5-3.46 8-3.46 9.48 0 1.6.84 2.3 1.92 2.3 1.41 0 3.46-.77 6.6-3.52l.44.64c-3.96 3.4-7.93 6.02-9.85 6.02-2.5 0-3.4-1.99-3.4-3.72 0-2.36.84-5.37 3.14-9.92l3.9-7.3c-12.41 15.5-20.92 21-26.81 21m37.17-.51c-.45 0-.64-.32-.38-.77C49.52 44.22 58.6 28.03 58.6 24c0-1.09-.64-1.8-1.73-1.8-1.4 0-3.32.9-6.46 3.66l-.45-.64c3.97-3.4 7.94-6.02 9.99-6.02 2.24 0 3 1.86 3 3.33 0 2.37-3.84 10.3-7.42 17.34 3.14-4.1 6.66-8 10.18-11.33 5.76-5.56 11.26-9.34 14.27-9.34 2.37 0 3 1.86 3 3.2 0 5.57-11.7 20.03-11.7 25.22 0 1.08.7 1.66 1.79 1.66 1.4 0 3.32-1.09 6.46-3.84l.45.64c-3.97 3.52-7.94 6.02-9.86 6.02-2.37 0-3.13-1.86-3.13-3.27 0-5.95 11.84-20.35 11.84-25.09 0-.96-.52-1.79-1.86-1.79-2.56 0-6.27 2.88-10.82 7.17a98 98 0 0 0-13.18 15.49c-1.73 3.2-3.14 5.7-3.71 6.59a.8.8 0 0 1-.77.45zm41.14.45c-3.33 0-6.53-1.22-6.34-4.55.06-1.34.9-3.07 4.03-5.44l.39.32a6 6 0 0 0-.7 2.69c0 2.69 1.98 5.31 6.33 5.31 3.97 0 7.55-2.56 7.55-6.65 0-5.12-6.2-10.95-5.82-15.94.44-5.44 7.48-8.64 13.37-8.64 2.69 0 5.89.77 5.89 1.86 0 1.34-1.92 2.68-3.33 2.68-1.92 0-3.84-.83-8.38-2.81-3.14 1.09-4.48 2.56-4.67 4.29-.52 5.37 6.14 10.56 5.88 16.5-.32 6.02-6.84 10.38-14.2 10.38m27.42 0c-4.73 0-7.3-3.01-7.3-7.36 0-11.52 14.35-25.67 24.14-25.67 3.26 0 5.05 1.28 5.05 3.46 0 3.84-5.05 8.96-24.83 21.31.2 2.94 1.73 5.5 5.89 5.5 1.98 0 5.76-.7 10.94-5.3l.45.5c-5.95 5.7-11.33 7.56-14.34 7.56m-2.94-9.03c13.31-8.32 20.42-13.5 20.42-18.75 0-2.3-1.86-3.07-3.65-3.07-9.67 0-16.7 13.37-16.77 21.82m22.82 8.58c-.45 0-.64-.32-.38-.77 3.77-6.66 12.86-22.85 12.86-26.88 0-1.09-.64-1.8-1.73-1.8-1.4 0-3.33.9-6.46 3.66l-.45-.64c3.97-3.4 7.94-6.02 9.98-6.02 2.24 0 3.01 1.86 3.01 3.33 0 1.4-1.34 4.86-3.26 8.83 4.35-6.6 9.92-12.16 18.17-12.16 1.67 0 3.01.26 3.01 1.09 0 1.53-2.17 3.71-4.35 3.71-1.98 0-4.35-.26-7.68-1.28-4.16 2.3-8.83 8.9-12.6 15.68-3.02 5.89-6.09 11.4-6.98 12.8a.8.8 0 0 1-.77.45zm33.88.45c-4.74 0-7.3-3.01-7.3-7.36 0-11.52 14.34-25.67 24.13-25.67 3.26 0 5.05 1.28 5.05 3.46 0 3.84-5.05 8.96-24.83 21.31.2 2.94 1.73 5.5 5.89 5.5 1.98 0 5.76-.7 10.94-5.3l.45.5c-5.95 5.7-11.33 7.56-14.34 7.56m-2.95-9.03c13.31-8.32 20.42-13.5 20.42-18.75 0-2.3-1.86-3.07-3.65-3.07-9.67 0-16.7 13.37-16.77 21.82m27.3 7.55V9.15c0-.57.51-1.02 1.09-1.02h7.04c.7 0 1.09.45 1.09 1.02v16.51l15.68-16.7c.57-.7 1.02-.83 2.17-.83h7.3c1.15 0 1.34.64.51 1.53l-17.47 18.56 19.07 21.9c.83 1.02.45 1.53-.51 1.53h-8.39c-1.4 0-1.72-.26-2.43-1.22l-15.93-19.07v19.26c0 .58-.39 1.03-1.1 1.03h-7.03c-.58 0-1.09-.45-1.09-1.03m40.17-16V9.15c0-.57.45-1.02 1.09-1.02h7.04c.7 0 1.08.45 1.08 1.02v25.6c0 6.27 3.65 9.6 9.1 9.6 5.43 0 9.02-3.33 9.02-9.6V9.15c0-.57.44-1.02 1.08-1.02h7.04c.7 0 1.1.45 1.1 1.02v25.47c0 10.88-7.18 17.67-18.25 17.67s-18.3-6.79-18.3-17.67m45.08 16V9.15c0-.57.51-1.02 1.09-1.02h15.23c10.05 0 16.83 5.31 16.83 13.89 0 6.2-3.77 10.3-9.79 11.96l12.16 15.88c.96 1.28 0 1.79-1.28 1.79h-7.36c-1.15 0-1.47-.32-2.24-1.41l-10.62-14.4h-4.8v14.78c0 .58-.39 1.03-1.1 1.03h-7.03c-.58 0-1.09-.45-1.09-1.03m16.26-34.81h-7.04v12.35h6.97c4.35 0 7.23-2.3 7.23-6.14 0-4.04-2.88-6.21-7.16-6.21m41.1 28.54c3.97 0 6.21-1.73 6.21-4.22 0-2.82-1.79-4.1-10.04-6.53-10.24-2.94-13.76-6.98-13.76-13.38 0-6.84 4.99-12.73 16.19-12.73 5.57 0 11.58 1.85 15.8 4.22.84.51.84 1.03.58 1.6l-2.5 5.44c-.44.9-.82 1.22-1.98.64-3.13-1.79-7.87-3.97-12.29-3.97-4.6 0-6.14 1.8-6.14 3.9 0 2.76 2.18 3.72 10.18 6.15 8.76 2.69 13.63 5.95 13.63 13.57 0 8.2-6.47 13.25-16.06 13.25-7.37 0-12.68-1.67-17.35-4.16-.96-.51-1.09-1.03-.64-1.86l2.56-5.44c.38-.77.83-.96 1.6-.51 4.8 2.37 8.83 4.03 14.02 4.03m22.7 6.27V9.15c0-.57.51-1.02 1.09-1.02h29.82c.64 0 1.03.38 1.03 1.09v5.56c0 .58-.39 1.03-1.03 1.03h-21.7v9.15h15.3c.64 0 1.03.38 1.03 1.09v5.5c0 .64-.39 1.09-1.03 1.09h-15.3v11.33h21.7c.64 0 1.03.38 1.03 1.02v5.57c0 .64-.39 1.09-1.03 1.09H359.2c-.58 0-1.09-.45-1.09-1.03"/></svg>