<svg xmlns="http://www.w3.org/2000/svg" width="109" height="50" fill="none"><g clip-path="url(#a)"><mask id="b" width="109" height="50" x="0" y="0" maskUnits="userSpaceOnUse" style="mask-type:luminance"><path fill="#fff" d="M109 0H0v50h109z"/></mask><g fill="#ede9e4" mask="url(#b)"><path d="m82.325 26.269.23-3.73-.313-.054c-1.028 2.608-2.77 3.364-5.509 3.364h-3.709c-.826 0-1.286-.448-1.286-1.262V15.98h3.654c3.254 0 4.08.644 4.423 1.907h.343v-4.233h-.343c-.342 1.262-1.17 1.906-4.422 1.906h-3.655V7.066h4.197c2.911 0 4.594.839 5.597 3.306l.313-.083-.313-3.643H68.259v.366c.856.253 1.14.897 1.14 3.194v12.503c0 2.301-.284 2.945-1.14 3.195v.365h14.075zm-24.72.278c2.882 0 6.194-1.458 7.852-3.73v-5.271h-3.738v.336c1.228.308 1.457.98 1.457 2.721l.03 2.858c-.714 1.4-2.569 2.521-4.711 2.521-5.768 0-9.134-5.803-9.08-11.103.059-5.159 3.14-7.934 7.25-7.934 3.342 0 5.969 1.907 7.021 4.316l.284-.054-.113-3.306c-1.115-.731-3.825-1.458-6.365-1.458-6.11 0-10.39 4.515-10.39 10.147 0 6.028 4.138 9.953 10.503 9.953m-24.661-8.096 3.796-9.225 3.909 9.225zm-4.74 7.822h3.223v-.365c-.998-.196-1.085-1.122-.342-2.946l1.683-4.091h8.048l1.742 4.12c.914 2.102 1.14 2.663.258 2.917v.365h4.423v-.365c-.597-.254-1.286-.815-2.167-2.916l-7.02-16.57-2.143.95.259.59c.23.45.254.815.058 1.318l-5.625 13.682c-.886 2.131-1.6 2.692-2.398 2.946zm-7.936 0h4.653v-.365c-.886-.254-1.14-.898-1.14-3.195V7.091h1.34c2.569 0 3.684.673 4.653 2.691l.313-.054-.171-3.082H15.215l-.172 3.082.314.054c.969-2.018 2.084-2.691 4.652-2.691h1.4v15.614c0 2.301-.26 2.945-1.14 3.194v.37m-13.273.278c3.367 0 6.679-2.13 6.679-5.637 0-3.169-2.97-4.403-6.136-5.636-2.426-.98-5.366-2.048-5.366-4.682 0-2.384 1.971-3.7 4.28-3.7 3.254 0 5.255 1.736 6.311 4.178l.284-.083-.113-3.253c-1.115-.59-2.97-1.287-5.567-1.287C3.17 6.447.401 8.52.401 11.8c0 2.97 2.142 4.15 5.509 5.467 2.397.955 5.91 2.243 5.91 5.046 0 2.273-1.972 3.73-4.252 3.73-3.968 0-6.135-2.496-7.25-5.437l-.314.054.142 3.897c1.34.95 3.855 1.99 6.85 1.99M97.84 49.543c0 .258.205.453.493.453h3.183c.288 0 .493-.2.493-.453V34.091h6.014c.288 0 .493-.2.493-.453v-2.472c0-.311-.201-.481-.493-.481H91.827c-.289 0-.464.17-.464.481v2.472c0 .258.175.453.464.453h6.014zm-22.961 0c0 .258.23.453.493.453h13.477c.288 0 .463-.2.463-.482v-2.472c0-.282-.175-.452-.463-.452h-9.806v-5.027h6.912c.288 0 .463-.199.463-.481v-2.443c0-.311-.175-.482-.463-.482h-6.912v-4.062h9.806c.288 0 .463-.2.463-.453v-2.471c0-.312-.175-.482-.463-.482H75.372c-.26 0-.493.2-.493.453v18.405zm-16.865 0c0 .258.23.453.493.453h12.609c.288 0 .463-.2.463-.482v-2.472c0-.282-.175-.452-.463-.452h-8.938V31.137c0-.257-.175-.452-.492-.452h-3.183c-.259 0-.493.199-.493.452v18.406zm-16.86 0c0 .258.23.453.493.453h12.609c.288 0 .463-.2.463-.482v-2.472c0-.282-.175-.452-.463-.452h-8.938V31.137c0-.257-.175-.452-.493-.452h-3.182c-.259 0-.493.199-.493.452v18.406zm-15.908-7.867 2.632-7.074 2.601 7.074zm-2.831 7.668 1.65-4.433h7.634l1.65 4.462c.175.482.463.623.981.623h2.89c.58 0 .84-.229.606-.798l-7.259-18.065c-.146-.311-.376-.453-.722-.453h-3.73c-.347 0-.576.2-.693.453l-7.259 18.065c-.23.599 0 .798.606.798h2.66c.522 0 .84-.229.982-.652M9.196 41.422c1.821 0 3.037.968 3.037 2.584s-1.216 2.584-3.037 2.584H5.292v-5.172h3.904zm-.78-7.331c1.561 0 2.601.822 2.601 2.189s-1.04 2.16-2.602 2.16H5.292v-4.345h3.123zM1.127 49.543c0 .258.23.453.492.453h7.635c4.398 0 7.375-2.272 7.375-5.882 0-2.044-1.156-3.58-3.5-4.432 1.504-.91 2.285-2.214 2.285-3.751 0-3.124-2.777-5.255-6.941-5.255H1.616c-.259 0-.493.2-.493.453v18.406zM108.587 22.871c-1.412 3.76-5.793 5.271-10.989 4.461-8.231-1.3-11.656-6.006-12.01-10.717-.318-4.145 2.4-6.675 4.272-8.079.175-.141.033.457-.105.598-1.45 1.442-3.287 4.358-3.036 6.817.422 4.39 4.206 7.763 7.985 8.748 4.026 1.055 9.539 1.196 10.917-2.742 1.483-4.25-2.188-7.8-5.053-10.119-2.965-2.425-8.654-4.46-8.654-8.257C91.91 1.23 93.82 0 95.514 0c3.179 0 5.125 2.106 5.125 4.39 0 4.217-4.732 6.643-7.242 10.049-.175.245-.318-.632-.175-.914 1.624-2.95 4.873-3.863 5.19-8.4.143-2.072-2.154-3.513-3.674-3.443-1.45.07-1.942.985-1.625 2.356.284 1.196 1.729 2.388 2.965 3.198 1.483.984 4.452 2.496 7.1 4.499 3.922 2.949 6.958 6.957 5.404 11.136"/></g></g><defs><clipPath id="a"><path fill="#fff" d="M0 0h109v50H0z"/></clipPath></defs></svg>