<svg viewBox="0 0 109 50" xmlns="http://www.w3.org/2000/svg">
    <defs>
        <clipPath id="clip0">
            <rect width="109" height="50" fill="white"/>
        </clipPath>
        <mask id="mask0" style="mask-type:luminance" maskUnits="userSpaceOnUse" x="0" y="0" width="109" height="50">
            <path d="M109 0H0V50H109V0Z" fill="white"/>
        </mask>
    </defs>
    <g clip-path="url(#clip0)">
        <g mask="url(#mask0)">
            <path d="M82.6877 26.4011L82.9175 22.6941L82.6033 22.6387C81.5718 25.2331 79.823 25.9856 77.0708 25.9856H73.3434C72.5135 25.9856 72.054 25.5378 72.054 24.7299V16.1712H75.7252C78.9931 16.1712 79.823 16.8129 80.17 18.0685H80.5122V13.8584H80.17C79.8277 15.114 78.9931 15.7557 75.7252 15.7557H72.054V7.30773H76.2691C79.1947 7.30773 80.8826 8.14329 81.8907 10.5992L82.2048 10.5161L81.8907 6.89225H68.5564V7.25695C69.419 7.50623 69.705 8.14791 69.705 10.433V22.8649C69.705 25.15 69.419 25.7917 68.5564 26.041V26.4057H82.6924L82.6877 26.4011ZM57.8617 26.6827C60.7592 26.6827 64.0834 25.2331 65.7479 22.9757V17.7361H61.9923V18.0685C63.2254 18.3778 63.4552 19.0426 63.4552 20.7737L63.4833 23.6174C62.766 25.0115 60.9046 26.1287 58.7525 26.1287C52.9621 26.1287 49.577 20.3582 49.6333 15.0909C49.6895 9.96214 52.7887 7.20155 56.9146 7.20155C60.2669 7.20155 62.9066 9.09888 63.9662 11.4948L64.2522 11.4394L64.1397 8.14791C63.0191 7.42314 60.2998 6.69837 57.7445 6.69837C51.6072 6.69837 47.3077 11.1855 47.3077 16.7898C47.3077 22.7818 51.4665 26.6873 57.857 26.6873M33.0873 18.6225L36.8991 9.44973L40.8281 18.6225H33.0873ZM28.3284 26.4011H31.5682V26.0364C30.5648 25.8425 30.4804 24.9238 31.2259 23.1096L32.9185 19.0379H41.0016L42.7504 23.1373C43.6694 25.2285 43.8991 25.7871 43.0083 26.0364V26.4011H47.4531V26.0364C46.8529 25.7871 46.1637 25.2285 45.2729 23.1373L38.2213 6.66143L36.0692 7.60779L36.3271 8.19407C36.5568 8.64186 36.585 9.00194 36.3833 9.50512L30.7336 23.1096C29.8428 25.2285 29.1301 25.7871 28.3237 26.0364V26.4011H28.3284ZM20.3578 26.4011H25.0323V26.0364C24.1415 25.7871 23.8836 25.1454 23.8836 22.8603V7.33543H25.2292C27.8079 7.33543 28.9285 8.0048 29.9037 10.0129L30.2179 9.95753L30.0444 6.89225H15.2801L15.1066 9.95753L15.4207 10.0129C16.3959 8.0048 17.5118 7.33543 20.0952 7.33543H21.5018V22.8649C21.5018 25.15 21.2439 25.7917 20.3531 26.041V26.4057L20.3578 26.4011ZM7.02349 26.6827C10.4086 26.6827 13.7328 24.5638 13.7328 21.0784C13.7328 17.93 10.7509 16.7021 7.56736 15.4741C5.1293 14.5 2.1755 13.4383 2.1755 10.8208C2.1755 8.45259 4.15408 7.14154 6.47492 7.14154C9.74286 7.14154 11.7496 8.86806 12.8092 11.2963L13.0952 11.2132L12.9827 7.98172C11.8621 7.39544 10.0007 6.69837 7.38919 6.69837C3.18354 6.69375 0.403217 8.75727 0.403217 12.0164C0.403217 14.9709 2.55527 16.1435 5.93574 17.4545C8.34566 18.4009 11.8715 19.6842 11.8715 22.4725C11.8715 24.7299 9.89289 26.1795 7.60018 26.1795C3.61489 26.1795 1.4347 23.7005 0.318823 20.7691L0 20.8291L0.145346 24.7022C1.49566 25.6486 4.01811 26.6827 7.02817 26.6827" fill="currentColor"/>
            <path d="M98.2726 49.5476C98.2726 49.8015 98.4742 50 98.7649 50H101.963C102.253 50 102.455 49.8015 102.455 49.5476V34.1843H108.498C108.789 34.1843 108.991 33.9858 108.991 33.7319V31.276C108.991 30.9667 108.789 30.7959 108.498 30.7959H92.229C91.9383 30.7959 91.7649 30.9667 91.7649 31.276V33.7319C91.7649 33.9858 91.9383 34.1843 92.229 34.1843H98.2726V49.5476ZM75.2095 49.5476C75.2095 49.8015 75.4439 50 75.7018 50H89.2377C89.5284 50 89.7019 49.8015 89.7019 49.5199V47.064C89.7019 46.7824 89.5284 46.6116 89.2377 46.6116H79.3917V41.612H86.3355C86.6262 41.612 86.7997 41.4135 86.7997 41.1319V38.7037C86.7997 38.3944 86.6262 38.2236 86.3355 38.2236H79.3917V34.1843H89.2377C89.5284 34.1843 89.7019 33.9858 89.7019 33.7319V31.276C89.7019 30.9667 89.5284 30.7959 89.2377 30.7959H75.7018C75.4392 30.7959 75.2095 30.9944 75.2095 31.2483V49.5522V49.5476ZM58.2744 49.5476C58.2744 49.8015 58.5088 50 58.7667 50H71.4305C71.7212 50 71.8947 49.8015 71.8947 49.5199V47.064C71.8947 46.7824 71.7212 46.6116 71.4305 46.6116H62.4519V31.2483C62.4519 30.9944 62.2784 30.7959 61.9596 30.7959H58.762C58.4994 30.7959 58.2697 30.9944 58.2697 31.2483V49.5522L58.2744 49.5476ZM41.3345 49.5476C41.3345 49.8015 41.569 50 41.8268 50H54.4907C54.7814 50 54.9548 49.8015 54.9548 49.5199V47.064C54.9548 46.7824 54.7814 46.6116 54.4907 46.6116H45.5121V31.2483C45.5121 30.9944 45.3386 30.7959 45.0198 30.7959H41.8221C41.5596 30.7959 41.3298 30.9944 41.3298 31.2483V49.5522L41.3345 49.5476ZM25.3606 41.7228L28.0049 34.6921L30.6211 41.7228H25.3606ZM22.5099 49.3491L24.165 44.9451H31.8355L33.4906 49.3814C33.664 49.8615 33.9547 50.0046 34.4798 50.0046H37.3821C37.9635 50.0046 38.226 49.7784 37.9916 49.2152L30.7009 31.2529C30.5555 30.9436 30.3211 30.8005 29.9741 30.8005H26.2279C25.881 30.8005 25.6466 30.999 25.5294 31.2529L18.2386 49.2152C18.0042 49.8107 18.2386 50.0046 18.8481 50.0046H21.5206C22.0457 50.0046 22.3646 49.7784 22.5099 49.3537M9.23655 41.4689C11.0651 41.4689 12.2841 42.4291 12.2841 44.0403C12.2841 45.6514 11.0651 46.6116 9.23655 46.6116H5.3169V41.4689H9.23655ZM8.45356 34.1797C10.0195 34.1797 11.0698 34.9968 11.0698 36.354C11.0698 37.7112 10.0242 38.5006 8.45356 38.5006H5.3169V34.1797H8.45356ZM1.13 49.5476C1.13 49.8015 1.36443 50 1.62231 50H9.29282C13.7095 50 16.7008 47.7426 16.7008 44.1557C16.7008 42.1245 15.538 40.5964 13.1843 39.747C14.6941 38.8422 15.477 37.545 15.477 36.017C15.477 32.9102 12.6873 30.7912 8.50513 30.7912H1.62699C1.36443 30.7912 1.13469 30.9898 1.13469 31.2437V49.5476H1.13Z" fill="currentColor"/>
            <path d="M108.583 22.9342C107.153 26.7058 102.713 28.2199 97.4521 27.4074C89.1158 26.1056 85.6416 21.3831 85.2852 16.6605C84.9617 12.5058 87.7186 9.96676 89.6175 8.55877C89.7957 8.41566 89.655 9.01579 89.5096 9.1589C88.0421 10.6038 86.1808 13.526 86.4339 15.9958C86.8653 20.3998 90.6912 23.7836 94.5217 24.7669C98.6008 25.824 104.185 25.9625 105.577 22.0201C107.082 17.7592 103.36 14.2 100.462 11.8733C97.4568 9.4405 91.6945 7.40006 91.6945 3.59616C91.6945 1.23719 93.6262 0 95.3469 0C98.568 0 100.537 2.1143 100.537 4.40403C100.537 8.63263 95.7408 11.0608 93.2042 14.4816C93.0261 14.7262 92.8807 13.8491 93.0261 13.5675C94.6718 10.6084 97.9632 9.68978 98.2867 5.14726C98.432 3.06989 96.1065 1.62497 94.5639 1.69421C93.0964 1.76346 92.5947 2.68212 92.9182 4.05318C93.2042 5.25344 94.6718 6.44908 95.9236 7.25695C97.4286 8.24485 100.753 9.72209 103.472 11.7671C107.017 14.4077 110.163 18.7425 108.587 22.9342" fill="currentColor"/>
        </g>
    </g>
</svg>